<svg xmlns="http://www.w3.org/2000/svg" id="Layer_1" data-name="Layer 1" width="272.37" height="21.73"><defs><style>.cls-1{fill:#fff}</style></defs><path d="M24.29.28a1.12 1.12 0 01.6.11A13.88 13.88 0 0127 .62c.47 0 .83.12 1.19.12s.36.12.48 0c.12.12.24 0 .36.12a4.28 4.28 0 001.21.14c.36 0 .72.12 1 .12s.48.11.72.11.24.12.36 0 .12.12.23.12.24.11.36 0c0 .11.12 0 .12 0h-.12c0 .11.12.11.12.11h.36c.12 0 .24 0 .24.12h.12c.12.12.24 0 .36.12s.12-.12 0-.12c.12.12.12.23.23.23h.12a.44.44 0 00.36.12V2h.12c.12 0 0 0 0 .12H35a.43.43 0 00-.23-.12.45.45 0 01.36.12c.12 0 .23.11.47.11 0 0-.24-.11-.24 0s.12 0 .24 0a.44.44 0 00.36.12c0-.12-.12-.12-.24-.12.12-.11.12.12.24.12s.12.12.24.12c.12-.12.12 0 .24 0-.12 0-.24-.12-.24 0s.24 0 .36.11a.11.11 0 00.12-.11c.12 0 .12.11.24 0h-.12v.11c0 .12.12 0 .12.12h.23c.12 0 .12 0 .12.11s-.12.12 0 .12h.12c0 .11.12 0 .12 0h.12c.12.11.36.11.48.23s.12.12.24.12.12.11.23.11h.12v.11h.12l.24.11c.12 0 .12.12.24.12 0 .11.24.11.24.23s-.12.12 0 .12h.12c.12.11.24.23.36.23s.12 0 .23.12v.12h.24a.11.11 0 00.12.11.39.39 0 01.23.12l.36.35c.12 0 .12 0 .23.11s-.12.12 0 .12h.12v.11c.24 0 .24.23.36.35a1 1 0 01.35.58c.24.11.12.35.36.58 0 .11 0 .11.12.11v.12a.42.42 0 01.12.35c0 .12.12.23.12.34a.42.42 0 01.12.35v.35c-.12 0 0-.12 0-.23s-.1-.14-.1-.26v.23h-.12c.12 0 0 .11 0 .23s0 .12-.12.12a.11.11 0 00.12.12c-.12 0 0 .11-.12.23v.12c-.12 0 0 .11 0 .11l-.36 1c-.12 0 0 .12-.12.12.12.11 0 .11 0 .23h-.12v.12A.39.39 0 0042 11c0 .11-.12.12-.12.23s-.36 0-.12.11c.12-.11.12-.23.36-.23V11c0-.12.12-.23.24-.35s.12 0 .12-.12h-.12c.12 0 0-.23.24-.11v-.12h-.12c.24.12.12-.23.36-.23 0 .12 0 .12-.12.23.12 0 0 .12 0 .12h-.12v.11c0 .12 0 .23-.12.23h-.12s.12 0 0 .11c0-.11-.12 0-.24 0V11h.12v-.12c0 .12-.23.12-.12.23s-.12 0 0 .12v-.12a.11.11 0 00-.12.12c0-.12-.12 0-.24 0l-.12.11c.12.12.24 0 .36.12a.37.37 0 00-.24.12v.11c-.12.12-.24.12-.24.35s-.36.23-.36.34a.41.41 0 01-.23.12l-.48.35a.11.11 0 01-.12.11c-.24 0-.24.23-.36.23s-.23.12-.23.12-.24.12-.36.12a.11.11 0 00-.12.11.43.43 0 01-.24.12h-.24c-.12 0-.24.11-.36.11h.12c0 .12-.12 0-.12 0h-.6s0-.11-.12 0h-.12v.12c-.12 0-.12-.12-.24 0A.45.45 0 0037 14v-.11h.12c-.12 0-.12-.23-.23-.12a.12.12 0 00-.12.12c-.12-.12-.24.11-.36 0-.12.11-.23 0-.47 0 0 .11.12 0 .12 0h-.84V14c-.12 0-.36.12-.47 0 .12 0 .24 0 .24-.11a.45.45 0 00.36-.12c-.24.12-.6 0-.84 0s-.12.12-.12.23.24.46.24.58a.11.11 0 01.12.12c.12.11.24.23.24.35.24 0 .12.23.24.23s.12.35.36.35c.24.23.6.35.83.58l1.43.69c.12.11.36 0 .48.11s.36.12.6.12l.23.11c-.23-.11-.23 0-.47 0s-.12 0-.24.12a.11.11 0 00-.12-.12l-.12.12a.74.74 0 00.48.12h-.24c0-.12-.12 0-.24-.12-.12 0-.24-.12-.36 0h-.35c0-.12.23 0 .23-.12h.12l-.12-.11h-.47v.11a.46.46 0 01-.36-.11c-.12.11-.36-.12-.6 0 .12.11.24 0 .36.11h-.12c-.12 0-.24-.11-.36 0s0 .12-.12 0l.12-.11a1.32 1.32 0 00-.6-.12 1.12 1.12 0 01-.6-.11 1.13 1.13 0 00.6.11h.24a.17.17 0 01-.24 0h-.12c0-.11-.12 0-.12 0H35a.11.11 0 00-.12-.11s-.12 0 0 .11c-.12-.11-.12-.11-.23 0s-.12-.11 0-.11h-.24v-.12a.12.12 0 00-.12.12l.12.11c0 .12.12 0 .24.12s0 0-.12 0v.11c-.12 0-.36 0-.36-.11v.11c0-.11-.11-.11-.23-.11a.11.11 0 01-.12.11c0-.11.12 0 .12-.11s-.12-.13-.24-.13v-.11a.11.11 0 01-.12-.12h-.12a.11.11 0 00-.12-.11.11.11 0 00.12-.12c0 .12 0 0-.12 0 .12.12-.24.12 0 .12H33c0-.12.12 0 .12-.12s-.24 0-.24-.12a.17.17 0 01-.24 0h-.12c-.12-.11-.24.12-.24-.11h-.12l-.16-.12h.24c-.12 0-.12-.11-.24-.11s-.12-.12-.23-.12h-.12c0-.11-.12 0-.24-.11h.12c0-.12-.24-.12-.24-.23s-.36 0-.36-.11a.12.12 0 00.12-.12c-.12 0-.24 0-.24-.11s-.24-.12-.12-.23a.86.86 0 01-.24-.46c-.12-.11.12-.23 0-.34.12 0 0-.12.12-.12V14c.12.12.24.12.36.23v-.12c0 .12.23.12.23.23s.36.12.48.35c.12 0 .12.23.24.11.12.12.24.12.36.23s.12.11.23.11c-.12.12.12 0 .12.12s.36 0 .48.11c0-.11 0-.11-.12-.23h.12c-.12-.12-.24-.12-.24-.35s0-.23-.12-.34a.11.11 0 00.12-.12v-.81s.12-.11 0-.11-.47.11-.71 0a.46.46 0 00-.36.11s.12 0 .12-.11-.36.11-.48 0c.24 0 .48-.12.72-.12s.36-.12.47-.12h.24c0-.11.12-.11.24-.23-.24 0-.36.11-.6.11.24-.12.6 0 .72-.35l.12-.11.12.11h.12c0 .12.24 0 .36 0a.43.43 0 00-.24.12c.12 0 .24.11.24 0s.24.11.24 0 .12 0 .12-.12h.24c.12-.11.24 0 .36-.11a.91.91 0 00.6-.12c.12 0 .12 0 .23-.12s.24 0 .36-.11.36-.12.47-.12.24-.11.36-.11c.47-.12.83-.35 1.31-.46a.12.12 0 01.12-.12c.12 0 .23-.12.36-.23l.12-.12c.12-.11.24-.11.24-.23l.36-.35c0-.11.36-.34.36-.46s.12-.35.23-.46 0-.23.12-.35v.12a1.7 1.7 0 00.12-.81h.12c0-.11-.24-.11-.12-.34-.12 0-.12-.12 0-.12s-.24-.23-.12-.34-.12-.12 0-.23-.24-.12-.24-.35-.12-.23-.24-.35l-.36-.35c0-.11-.12-.11-.23-.23.12 0 .24.11.24 0s-.12.23.12.23a.12.12 0 00.12.12 1.15 1.15 0 01.47.58.11.11 0 01.12.11v.12c.12 0 .12.23.24.35a.11.11 0 00.12.11c-.12 0 0 .12 0 .12l.12.11V8c.12.23-.12.46 0 .69V9c0-.12.23 0 .23-.12s.12.12.12 0l.12-.11V9H41c.12 0 0 .12.12.12a.11.11 0 00-.12.11h.12s0 .12-.12 0 0 .12-.12.12.12 0 .12.11h-.24l-.12-.11h-.13c-.12 0 0 0 0 .11h-.12c.12 0 0 0 0 .12s0 .11-.12.11-.12.23-.12.35c.24-.11.24-.23.36-.35 0 .12-.12.12-.12.23s-.12 0-.24.11-.24.23-.24.35h-.12c0 .11.12 0 .23 0s.12-.12.12-.23.12-.12.24-.23.12-.23.24-.23c.12-.23.36-.34.36-.57s.12-.12 0-.23c.12 0 0-.11 0-.11a.42.42 0 01.12-.35c-.12-.11.12-.35 0-.46v-.32c0-.11.12-.11 0-.11.12-.12-.12-.23 0-.35-.12-.12-.12-.35-.24-.46-.12.11 0 .11 0 .23s-.12.12.12.23c0 .11.12.23 0 .23h.12c-.12.12-.12-.12-.24 0v.12h.24c0 .11.12.23-.12.23v.12h-.24c.12-.23 0-.34 0-.58a.11.11 0 00.12-.11c-.12-.12 0-.35-.12-.35v.23c0-.11 0-.23-.12-.23s.12.11.12 0 0-.12-.12-.12h-.12v-.11a.12.12 0 00.12-.12c.12 0 0-.11.12-.11a.11.11 0 01-.12-.12c0-.11 0-.11-.12-.23.12-.12-.12-.12-.12-.35-.24-.11-.36-.34-.6-.57 0-.12-.12-.12-.12-.23s-.24-.23-.36-.23h.12c0-.11-.24 0-.36-.11h.24c0-.12-.24-.12-.24-.12s-.24 0-.24-.11h-.24c-.11 0-.11-.23-.35-.12 0 0 .12 0 .12-.11H38c.12 0-.12-.12 0-.12s.12.12.24 0c-.12-.12-.24 0-.36-.12-.12.12-.12-.1-.23-.1h.12v-.13c.12 0 .12.12.12 0s-.36 0-.48 0h.12V3.5c-.12-.12-.24 0-.36-.12v-.11c.12-.12-.12-.12-.12-.12h-.24c-.12 0-.24-.12-.24 0a.12.12 0 00.11-.15l.12-.11c-.12 0-.12-.12-.24 0a.11.11 0 00.12.11h-.12s-.12-.11-.12 0c-.12-.11-.24-.11-.48-.11h.24l-.12-.12h-.36c-.12 0-.23-.11-.36-.11.12 0 0-.12 0-.12s-.24-.11-.36-.11a.12.12 0 00.12-.12.41.41 0 00-.24-.12.11.11 0 00-.12.12c-.12-.12-.36 0-.36-.12s-.35 0-.35-.11h-.12a.45.45 0 01-.36-.08h-.12c0 .12-.12 0-.12 0s-.12-.11-.36-.11a.44.44 0 01-.36-.12c-.23 0-.36-.11-.6-.11s-.12 0-.23-.12-.36-.12-.48-.12-.24 0-.36-.11c1.31.58 1.07.46.84.46s-.24 0-.36-.11-.36-.12-.47-.12a2.68 2.68 0 00-1-.12c-.12-.11-.36 0-.47-.11h-.24c-.72-.12-1.43-.12-2.15-.23H27c-.12 0-.24.11-.36 0C25.12 1 23.93.85 22.39.85c-.12-.12-.36 0-.48 0a3.72 3.72 0 01-1.19-.11h-1.07a3.3 3.3 0 00-1.07 0h-.71a.91.91 0 00.6-.12V.51h-.72c0 .11-.12 0-.12 0h-.73c-.24 0-.36.11-.6 0a1.57 1.57 0 00-.71.11l.12.12c-.24 0-.6.12-.83.12a.47.47 0 00-.36.11h-.72c0 .12-.12 0-.23 0s-.36.23-.48.12a.38.38 0 00-.24.11c0 .12.12 0 .12 0a.44.44 0 00-.36.12c-.47.11-.71.23-1.19.35 0 .11-.12 0-.24 0a3.45 3.45 0 01-.6.11s.12 0 .12-.11c.12.11.23 0 .36 0s.24-.12.47-.12h.12c.24 0 .36-.23.71-.23 0-.12.24 0 .24-.12-.24 0-.36 0-.47.12h-.36c-.12-.12-.24 0-.36 0s-.12.11-.24.11-.12 0-.24.12-.23 0-.23.12-.36.11-.48.11h-.12a.72.72 0 00-.47.12c-.12 0-.24.11-.36 0 0 .11-.23.11-.36.23s-.36.12-.36.23c.24 0 .36-.12.6-.23A.45.45 0 009.52 2c-.24.23-.6.12-.72.23h-.35c0-.11-.12 0-.24 0s-.12.35-.24.35a.73.73 0 00-.48.12h-.24a.11.11 0 01-.12.11c0 .12-.24 0-.36.12H7c0 .11-.12 0-.12 0-.24.23-.48.23-.6.35h-.1c-.12.11-.36.23-.48.34a2.62 2.62 0 00-.6.35c.12 0 .24 0 .24-.12h.12s.12-.11 0-.11c.12-.12.12 0 .24-.12s.24-.11.36-.11.23-.12.47-.12v-.12c.12.11.24-.12.36 0 0-.12.12.11.23 0h-.23c0 .11-.12.11-.24.11h-.11c0 .12-.12 0-.12.12 0-.12-.12 0-.12 0v.11a.11.11 0 01.12.12c.12 0 .12 0 .24-.12 0 .12-.24.12-.12.23h.12c0 .12-.12.12-.24.12h.12c-.12-.12-.12 0-.36 0a.44.44 0 01-.36.12s-.12.11 0 .11a.46.46 0 01.36-.11c.12-.12.23 0 .36-.12s.24-.12.36-.12H7c-.12-.11-.12 0-.24 0v-.1c.12.11.12-.12.24 0 0-.12.23-.12.23-.12h-.1l.12.12.12-.12v.12a3.62 3.62 0 01-1 .45c-.12 0-.12.12-.23.12s-.24-.12-.24.12c-.24 0-.36.23-.6.23 0 .12-.24.12-.12.23h.12a.43.43 0 01-.19.11c0-.11-.12 0-.24 0s-.12.12-.24.12a.11.11 0 00.12.11h.12a.11.11 0 00-.12.12c-.12 0-.24-.12-.24 0a.11.11 0 01.12.11c-.12 0-.24.12-.36.23 0-.11.24-.11.12-.23s-.47.34-.71.46V6c.12-.11.24-.11.36-.23h.12a.11.11 0 00-.16.16c-.12.11-.24 0-.24.11v.12a.11.11 0 00-.12.11c-.12 0-.12.12-.24.12s-.12.23-.24.23c-.12.23-.36.35-.36.58s-.23-.12-.23.11v.12h.12c0 .12 0 .12-.12.23v.12c-.12 0-.12 0-.12-.12a.11.11 0 01.12-.11.41.41 0 01.12-.23c-.23.12-.12.35-.23.46s-.12.23-.24.34c.12 0 0 .12 0 .12v.12c-.12.23 0 .34-.12.57-.12-.23 0-.23-.12-.23s-.12.11 0 .11v.11h.12C2 9 2.25 9 2 9.15a.11.11 0 00.12.11c-.12.12 0 .23-.12.35v.23c0 .12-.12.23 0 .35A1.85 1.85 0 002 11l.12.11c.12 0 0 .23.12.23 0 .23.36.35.47.58h-.1c.24-.11.24.23.36.23a2.13 2.13 0 00.59.46c.23.12.48.34.72.46 0 .11.12 0 .12.11a5.37 5.37 0 001.19.58c.23 0 .36.23.71.23a.37.37 0 00.24.12c.12-.12.36 0 .48.12s.36.11.47.11.36.12.48.12.24 0 .36.11a1.33 1.33 0 00.59.12H9a.46.46 0 01.36.11c.24 0 .48.12.83.12a.73.73 0 00.48.12c.12 0 .23.11.36.11a.71.71 0 01.47.12h.36a.74.74 0 00.47.11 3.37 3.37 0 001.07.12h.12l.12.11c.12 0 .12-.11.12 0a2.71 2.71 0 011 .12h.12a25.3 25.3 0 003 .12h.6v.11c0-.11.24-.11.24 0h.12a39.87 39.87 0 005.36-.35c.71 0 1.43-.23 2.26-.23a4.11 4.11 0 011.19-.12c.12.11.24 0 .36 0h.12a.11.11 0 00.12.11c0 .12.24.12.24.23-.36.12-.83.35-1.31.46-.24.11-.36.11-.6.23h-.12a1.09 1.09 0 01-.6.12c-.23 0-.48.12-.72.12s-.12 0-.24.12c-.36 0-.6.11-.83.11 0-.11 0 0-.12 0s-.36.12-.48 0-.24.12-.36 0a14.86 14.86 0 01-2.38.23c-.12-.11-.24 0-.36 0h-.47c-.12.12-.36 0-.6.12h-2.64c-.12.11-.36 0-.47 0h-.12c-.24 0-.47.11-.6 0-.12.11-.36 0-.47 0h-.24c-.12 0-.36.11-.48 0a9.51 9.51 0 01-1.79-.11c-.24 0-.36-.11-.72-.11a5.31 5.31 0 01-.6-.12.11.11 0 01-.12-.11c0 .11-.12 0-.12 0v-.12h-.47c-.24.12-.12-.23-.36-.12a.11.11 0 00-.1-.12h-.13a.12.12 0 01-.12-.12h-.11c-.12-.11-.36 0-.36-.11-.12.11-.12-.12-.23 0h-.13c0-.12-.12 0-.12-.12h-.12v-.11c.12 0 .12 0 .24-.12s-.24 0-.24-.23c-.12 0-.23-.12-.36-.12l.12.12h.12c0 .11.12 0 .24.11v.12a.12.12 0 01-.12-.12c-.12 0 0 .12 0 .12H8a.11.11 0 00.12-.12H8l-.12-.11h-.15c-.12 0-.12-.12-.24-.12a.45.45 0 00.36.12v.11c0-.11-.24.12-.24-.11 0 0-.12-.12-.12 0v-.12c0 .12-.12 0-.24 0s-.23 0-.23-.11-.12-.12-.24-.12c-.12.46-.12.46-.24.46s-.24 0-.24-.11h-.11v-.12c-.24 0-.36-.11-.48-.11a.11.11 0 01-.12-.12c-.12 0-.12-.11-.12 0S5.35 15 5.23 15c.12 0 0-.12.12-.12s-.24-.12-.24-.23-.12 0-.12 0v.11a.11.11 0 00-.12.12c.12.12.12 0 .24.12h-.24l-.24-.23a.11.11 0 00-.12-.11.12.12 0 01-.12-.12c.12 0 0 0 0-.11h-.12c0-.12-.12 0-.24-.12v.12c-.12 0-.12-.23-.24-.12l-.12-.11c-.24 0 .12-.23-.12-.12s0-.12-.12-.12l.12.12s.12 0 0 .12h-.11c-.12 0 0 0 0 .11-.12-.11-.12-.23-.24-.23h.13c.12 0-.12 0-.12-.12s0-.11-.12-.11h.12v-.12h-.13v.12c-.12 0 0-.12-.24-.12s0-.11-.12-.11v-.12l-.12-.11v.11a.11.11 0 01-.12-.11c.12-.12.36.11.36 0s-.36 0-.36-.12l-.12-.12v.12c-.12 0 0-.12-.12-.12v-.11c-.12-.12-.12.11-.24 0s-.36 0-.24-.23H2c0-.12-.12-.12-.24-.23 0 .11.12 0 .24 0-.12-.12-.12 0-.24 0s-.12-.12-.12-.23h-.11c0 .12.12.12.12.23 0-.12-.24-.12-.12-.35s-.12-.12-.12-.12h-.12c0-.11 0-.11-.12-.11a.11.11 0 00-.12-.12v-.11c-.12 0-.12-.12-.12-.23v-.12H.82c.12 0 0-.12 0-.12l-.12-.07s-.12.11-.12 0S.94 11 .82 11s-.12 0-.12.11v-.23c0-.12-.12-.12 0-.12a.11.11 0 00-.12-.12H.46c.12 0 0-.12.12-.23l-.12-.12c.12 0 0 0 0-.11a.42.42 0 00-.12-.35c.12 0 0-.12 0-.12v-.2c-.12-.12 0-.12-.12-.23s0-.35 0-.58h.12c-.12-.11 0-.23 0-.34s.12-.36.12-.47.12-.11 0-.11c0-.23.23-.35.12-.58a6.74 6.74 0 01.48-.81c0-.11 0-.23.23-.23A.12.12 0 011.42 6c.12-.11.24-.35.36-.46l.12-.12a.11.11 0 01.1-.07h.12c.24-.35.72-.58.83-.81s.12-.23.37-.23 0-.23.23-.13.13-.11.24-.23c.12.12.12 0 .12 0l.09-.1c.12-.11.36-.11.36-.34h.12c0-.12.12-.12.24-.12s-.12.12-.24.23-.12 0-.12.12.12 0 .12 0 .24-.12.36-.23H5c.12-.12.36-.12.36-.23s.24 0 .24-.12v-.23h.1c0-.12.12 0 .36-.12s.35-.11.47-.23.36-.23.6-.12l1.07-.35c.12 0 .12-.12.36-.12 0-.23.12-.23.24-.23s.12-.12.24 0c.12-.12.23 0 .23-.12h.36c-.12-.12.12 0 .12-.12l.36-.12s-.12.12 0 .12.36-.23.47 0a5.53 5.53 0 01.6-.12c.12-.11.36-.11.6-.23a.12.12 0 00.12-.12h-.12a6.45 6.45 0 012.14-.43A53.49 53.49 0 0122.5.16c.59.12 1.31 0 1.79.12zm-5.36.11zm-2 .35zm-.6.12z" class="cls-1"/><path d="M13.8 1h-.23c0-.11.12 0 .12-.11s.23.11.11.11zm-2.26 0a.9.9 0 01-.6.12 1.3 1.3 0 00.6-.12zm10.73.23zm.47 0zm1.07.12zm8.93 0h-.24c0-.12-.12 0-.12-.12a.44.44 0 00.36.12zm-8.22 0zm1 .11h-.23c.07-.03.19-.15.19-.03zm.36 0zm.71 0h-.12c-.04.08.08-.03.08-.03zm.36.12zm0 0zm6.79 0zm-6.43 0zm6.79.12h-.12c-.05-.16-.05-.04.08-.04zm-10.37 0h-.24c.08-.04.2-.16.2-.04zm3.93-.12zm.6.12a1.08 1.08 0 01-.6-.12 5.1 5.1 0 01.56.08zm-3.1 0zm-6.19 0zm6.31 0zm.12 0zm-6.79 0zm-.36.11h-.12v-.15zm.24 0zm10.36 0c-.15-.04-.04-.15-.04-.04zm-2.38 0zm2.5 0zm-13.22 0zm5 0a.11.11 0 01.12.12V2h-.12c.23 0 .12-.11 0-.23 0 .11-.12 0-.24 0s-.12.11-.12 0c-.23.11-.47 0-.71 0h-.24.24c.24 0 .6-.12.71 0s.36.11.36 0zm.83 0h.24c-.12.12-.23.12-.23 0a.43.43 0 01-.24.12h-.24c0-.12 0-.12-.12-.12.24.23.36 0 .6 0zm7.86 0h-.24c.09-.04.21.08.21-.04zm-12.63 0l-.24.12v-.16zm-.36.12h-.15c0-.16.13-.16.13-.04zm5.72 0zm.24-.12l.23.12-.23-.12c-.03.08-.15.08-.03-.04zm.47.12c-.14-.16-.02-.16-.02-.04zm.72 0c-.15-.16-.15-.04-.03-.04zm6-.12c0 .12.12 0 .12 0zm-10.2.08c0 .11-.24 0-.24.11H19v-.11h-.12c.28-.12.4 0 .52 0zm4 .11c-.12 0-.36 0-.36-.11h.12c.17-.12.17.11.29.11zm-4.88-.11zm5.24 0c-.19 0 .05-.12.05 0zm-7.86 0zm6.79 0zM18.21 2c-.12 0-.12-.11-.23-.11s-.12.11-.12 0H18c.12 0 .12.11.24.11zM24 2c-.12 0-.23 0-.23-.11.16.11.16 0 .23.11zm.12 0c.17 0 .05-.11.05 0zM9.75 2h-.11l.23-.11zm9.18 0h-.36c.12 0 .24-.11.36 0zM25 2h-.24c.12-.11.12-.11.24 0zm-7.74 0zm3.34 0zm-.24 0zM9.64 2c-.12.12-.12 0-.24 0zm15.6 0zm-7.51 0zm5 0zm2.74 0a.12.12 0 01.12.12c0-.12.12 0 .12 0a.46.46 0 01.36.11c-.24-.11-.36-.11-.6-.23 0 .11-.12.11 0 0zm-5.72.11zm-1.67 0zm-2.26.12h-.12c.01-.11.13-.11.13 0zm3-.12zm-2.26.12c.12 0 .24-.11.24 0 0-.11-.24 0-.24 0s-.02-.11-.02 0zm10.44 0c.24 0 .36.12.47 0 0 .12.12 0 .24.12.12-.12.36 0 .48 0h-.36c-.12.12-.23-.12-.47 0 0-.12-.24 0-.36-.12 0 .12-.12-.11-.23 0-.24-.11-.48 0-.6-.11h.48c.14 0 .26.11.35.11zm-9.41-.12zm6.43 0zm1 0zm-8.94.23c-.12 0 0-.12-.12-.12.23-.1.11.01.11.13zm-.71-.12h.24c-.12 0-.24.12-.24 0s-.24 0-.24-.11c-.02.12.1.12.22.12zm2 0zM14 2.23zm2.5 0zm-3.93.12zm2.26-.12c-.07.12.05.12.05 0zm-4.17.12zm4.29 0zm-2.26 0zm16.2.12c-.12.11-.12 0-.36 0 .17-.12.28 0 .4 0zm3.69 0l-.12-.12zm-3.45 0zm7.62 0zm-23.59 0zm-1.07 0zm.71 0zm-1.07.11c-.12 0-.12 0-.12-.11zm17.87 0c-.12-.11-.24.12-.24 0h-.12a.23.23 0 01.41 0zm-17.75 0zm-.36 0zm1.08 0zm-3 0zm1.79 0c0 .12-.12 0-.24 0zm19.42.12c0 .11.24 0 .24.11h.24c-.12.12-.24 0-.48-.11h-.12c0-.12-.12 0-.12 0a1.09 1.09 0 01-.6-.12h-.11s-.24.12-.24 0h.12c.24 0 .6.12 1.07.12zm-20.43-.12zm3.34 0c0-.11-.12.12-.12 0zm-3.69 0a.11.11 0 00-.12.12.11.11 0 01.12-.12zm3.1.12c-.1 0-.01-.12-.01 0zm16.2-.12zm-18.23.12c-.12-.12-.24.11-.36 0 .12 0 .23-.12.36 0zm-1.91 0zm.6 0c-.12 0-.24.11-.36.11a.49.49 0 01.37-.11zm2.86 0zm-.24.11a.11.11 0 00-.12.12.11.11 0 01.11-.12zm-3 0s-.12.12-.12 0zm1.07 0zm.6 0zm-2 0c-.05.12-.13.12-.05 0zm3.1 0l-.24.12.09-.12zm19.53.12c-.12 0-.24 0-.24-.12.11.12.23 0 .23.12zm-22.75 0zm1.31 0a1.35 1.35 0 00-.6.07.11.11 0 00.12-.11c.12 0 .24 0 .24-.12zm-.59 0c0 .11-.12 0-.12.11-.12-.11 0-.11.13-.11zm2 0zm26.21 0zm-26.44 0c0 .11.12 0 .12 0s-.12.11-.12 0zM32.15 3c-.12 0-.24-.11-.36-.11a.46.46 0 01.36.11zM9.28 2.93c-.12 0-.12.11-.12 0zm-.48 0s-.12.11-.12 0 0 .07.12 0zm1.55 0c0 .11-.12 0-.12 0h.12zm1 0s-.12 0-.12.11a.11.11 0 01.07-.11zM32.51 3h.24c.24 0 .48.12.71.12s.36.12.6.12a.74.74 0 00.47.11 11.55 11.55 0 012.5 1c-.24 0-.36-.11-.6-.11s-.24-.12-.36-.23-.23-.01-.35-.01-.23-.12-.47-.12c-.12-.23-.48-.11-.6-.23s-.24-.12-.36 0-.12-.12-.12 0c-.12-.12-.24 0-.24-.12a2.91 2.91 0 01-1-.23.44.44 0 00-.36-.12L32.51 3c-.12-.11-.24 0-.36-.11H32c.27.04.39.11.51.11zm-23.95.16h-.11s0-.12.12 0c-.12-.12-.24 0-.36 0 .11 0 .35-.23.35 0zM36.44 3zM11.07 3a.45.45 0 00-.36.12h-.12c.12 0 .24 0 .24-.12zM9.51 3c-.12 0-.24 0-.24.12C9.28 3 9.4 3 9.51 3zM9 3h-.08c0 .16 0 0 .08 0zm.71 0l.12.12h-.08zm.83.12c-.12.12-.36 0-.48.12.12-.12.24-.12.48-.12zm-1.43 0c-.12.12-.36 0-.48.23-.12-.11-.23.12-.36.12s-.12.11-.24.11h-.18a.37.37 0 01-.23.12c-.12.11-.24 0-.24.11h-.13c0-.11.24 0 .24-.11s-.12.11-.24 0a.41.41 0 00.24-.12v.12a1.54 1.54 0 01.72-.12l.12-.11h.12v-.08c.35 0 .47-.23.71-.23zm-3.93 0zM8 3.27h-.15c0-.12-.12 0-.12 0s.12-.27.27 0zm-2.89-.11L5 3.27a.12.12 0 00.11-.11zm28.83 0zm1.79.12zm-28.23 0c-.12 0-.24.11-.36.11a.46.46 0 01.36-.11zm2.5 0c-.12 0-.12.11-.24 0zm25.85 0l.24.11zm-28.7 0zm.6.11zm1.25 0zm.6 0zm-2.15 0c0 .12-.12.12-.24.12a.43.43 0 01.28-.12zm28.83 0c0 .12-.12.12 0 0zm2.15.12zM8.92 3.5c-.12 0-.24.11-.36.11s0-.11 0-.11.24.11.36 0zm-.47.11zm-1.19 0c-.01.12-.13.12-.01.01zm1.31 0l-.12.12v-.11zm-4.29.23c0-.11.12-.11.12-.11zm32.64-.11zm-1.08 0zm1.16.12l-.12-.11zm-30.7 0a.41.41 0 01-.24.15h.12c.12 0 0-.12 0-.12zm1.7 0c-.12 0-.24.12-.24 0a.17.17 0 00.24 0zm30.85.35h-.15c0-.2.12-.12.12-.01zm-31.6-.12a.37.37 0 01-.25.11c-.12-.11 0 0 0-.11h.23zm31.09 0zM5.7 4.19h-.12c-.12-.11 0 0 .12 0zm31 0l-.12-.11zm1.07 0c-.14 0-.03-.11-.03 0zm-31 .12l-.24.11.12-.11h-.11c0-.12.12-.12.24 0 0-.12-.12-.12 0 0zm-1.31 0h-.23l-.12-.12a.44.44 0 00.36.12zm.6.23h.12c0 .11-.12.11-.12 0zm33.24.11zm-34.43.12c-.12 0-.24 0-.24-.12 0 .12.12 0 .24.12s.12-.12.24-.12a.41.41 0 00-.24.12zm1 0c.07-.12.07 0-.05 0zm31.92.12a.11.11 0 01.12.11c0 .12.12 0 .12.12s.24.11.36.23h.12a.11.11 0 00.12.12c.12 0 .12 0 .24.12s.36.23.48.35a.89.89 0 00.48.23.11.11 0 00.12.12c.12 0 .12 0 .24.12v.09c.12 0 .12.12.24.23l-.24.11v-.11c-.12 0 0 .11 0 .11s-.12-.11-.24-.11a.11.11 0 00.05-.11c0-.12-.23-.12-.23-.23s-.12 0-.24-.12h-.12a.11.11 0 00-.12-.11c0 .11-.12 0-.12 0s.12.11 0 .11v.12l-.12-.12h-.12c.12 0 0-.11 0-.11v-.12c-.24 0-.24-.23-.48-.23s-.24-.23-.36-.23a.11.11 0 00-.09-.12.11.11 0 00-.12-.11h-.12c.24-.35-.12-.23 0-.46-.23 0-.23-.12-.36-.12s-.12-.23-.36-.12c.23 0 .35.24.7.24zm1.19 0a.12.12 0 01-.12-.12c-.16 0-.04 0 .08.12zM4.51 4.77zm1.19 0zM39.17 5c-.11 0-.11-.11 0 0zm1.19.23c.01.12-.11 0 .01 0zm-.6.23l-.12-.11a.11.11 0 01.13.11zm.36.23c-.12-.11-.24-.11-.24-.23.12.12.12.23.25.23zm.36 0zm.36.58zm.6.23h-.12v-.11zm-.36.23L41 6.62a.11.11 0 01.08.11zm1-.12c0 .12.12.12.12.23.24.12 0 .23.24.35v.11c-.12-.11-.12-.34-.36-.46s-.12-.23-.23-.35c.07.01.07.24.15.13zm-.83.23c.07.01-.05.16-.05.01zm-.25.7c0-.12.08 0 0 0zm.6 0zm-.36.23c-.12.11.23 0 0 .11a.34.34 0 01-.12-.23.11.11 0 01.08.12zm.12.34c-.12.12.12.12 0 .23s.12.11 0 .23a1.86 1.86 0 00-.28-.57c.24 0 .12.11.24.11zm.32-.11zm.24.69l-.12.12v-.12h.12zm1.31 0c0 .12.12.12 0 .23.12.12-.12.12 0 .23s-.12.46-.12.69-.12.23-.24.35V10a1.22 1.22 0 00.24-1c.12 0 .12-.23.12-.35zm-41.1.12c-.13 0 0-.12 0 0zm40.14 0zm-.12.19a.4.4 0 01-.11.23h-.12l.08-.08c.12 0 .12 0 .12-.12v-.11c.12 0 0 0 0 .12zm.12 0zm-.47.11h-.12V9zm.12 0c0 .12-.36.12-.12.23a.38.38 0 00-.24.11.42.42 0 01.12-.34s-.12.11 0 .11a.38.38 0 00.24-.11zm.08.39zm.11 0zm-1.07 1.27a.12.12 0 01.12-.12zm.72.92c-.08 0 .04.11.04 0zm-.24.35a.25.25 0 00-.24.23c-.12 0-.12.23-.36.23 0 .12-.23 0-.23.12s0 .11-.12.11h-.24c.12-.11.24 0 .36-.11s.12-.12.12-.23c0 .12.12 0 .24 0s.24-.11.24-.11c.15-.28.15-.36.27-.28zm-2.15 0zm1.07.23c0 .12-.12 0-.12 0zm-38.59.35c-.08-.13.04-.13.04-.01zm38.59.11c-.12 0-.12.12-.24.12a.11.11 0 01-.12-.12c.12.12.24 0 .36 0zm.12.12zm-.48 0zm-.48.23zm-.24.11c-.12 0-.12.23-.36.12.12 0 .12-.35.36-.12zm-.12 0zm.48 0s-.12.12-.12 0zm-.24.12s-.24 0-.24.12h-.12c.18-.13.41-.25.41-.13zm-1.07 0zm-.23.23zm-5.13 0zM4 13.53zm34.54 0a.11.11 0 01-.12.12c.16 0 .04-.12.16-.12zm-5.83.12c-.12 0-.12.11-.24 0 .15 0 .27-.12.27 0zm.71-.12c-.12 0-.12.12 0 0zm5 .12c-.12 0-.12 0-.12-.12.04.12.16 0 .16.12zm-.6.11h-.12c.17-.11.17-.11.17 0zm-2 0zm.24 0zm-32.52.12c-.12 0-.12.11 0 0-.1.12-.1 0 .02 0zm1 .46zm-.72 0zm2 .46zm.24.35c0 .12.12.12 0 0-.12.12-.12 0-.24 0s-.12-.11-.12 0V15c.12.11.24.23.36.11zm3.69 0zm-3 .35h-.21s-.12-.12-.12 0v.11a.11.11 0 01-.12-.11v-.12h.24a.11.11 0 00.12.12zm.47.11zm.36.12c.12 0 .23.12.36.12-.12 0-.36-.12-.48-.12a.11.11 0 00-.12-.12l.24.12-.12-.12c-.09 0 .15 0 .15.11zm1.1.27h-.12c0-.16 0 0 .12 0zm.36.11H9zm-.36.11zm23.94.23c0 .12-.12 0 0 0-.23 0-.36 0-.47-.11h.12a.46.46 0 00.36.11zM9.87 16.3zm.71.23h-.12c.01-.12.13 0 .13 0zm22.27 0a.17.17 0 01-.24 0zm0 .12zm-.6 0zm1 0c-.12.11-.12.11-.24.11.09-.11.21 0 .21-.11zm-.48.11zm1.19 0zm.83.12c-.12 0-.12.11-.24 0h.24zm.36.23a.44.44 0 01-.36-.12c.12 0 .36-.11.36.12zm-.47 0c-.12.11-.12-.12-.24 0 .09-.11.21-.11.21 0zm.71 0zm-1.19.11zm-.23 0zm1.79.12a.16.16 0 01-.23 0c.07-.12.19.11.19 0zm-.23 0zm.35.12zm.6.11h-.28c0-.23.12 0 .24 0zm1.07 0zm-1.67 0zm1.31 0zm-1.19.11zM52.75 5.23h-3.57V2.47h11v2.76h-3.61v11.18h-3.82zm15.49 3.69a1.81 1.81 0 00-.83-.12c-1.79 0-2.74 1.27-2.74 3.23v4.38H61V6.5l3.34-.92v2.3a3.36 3.36 0 013.21-2.19c.48 0 .83.12 1.31.12zm8.93 7.49c0-.57-.12-1.15-.12-1.61a3.79 3.79 0 01-3.46 1.85c-2.14 0-4-1-4-3.23 0-3.23 3.58-3.58 5.6-3.58.6 0 1.31.12 1.79.12 0-1.38-1.07-1.85-2.5-1.85a7.24 7.24 0 00-3.48.81l.36-2.43a8.34 8.34 0 013.81-.69c2.74 0 5.12 1.15 5.12 4.27V14a8.33 8.33 0 00.24 2.42zm-2.5-2.19a2.34 2.34 0 002.26-2.42c-.48 0-1-.12-1.55-.12-1.31 0-2.26.35-2.26 1.38.01.82.72 1.17 1.55 1.17zm8.1-7.73l3.34-.92v2.3A4.13 4.13 0 0190 5.69c3 0 4 2 4 4.15v6.46h-3.6v-5.08c0-2-.71-2.65-1.67-2.65-1.55 0-2.26 1-2.26 3.23v4.38h-3.7zm13.93 7a7 7 0 003 .69c.72 0 1.55-.12 1.55-.81 0-1.73-5.24-.57-5.24-4.26 0-2.42 2.38-3.35 4.53-3.35a10.57 10.57 0 013.81.58l-.71 2.53a4.73 4.73 0 00-2.39-.69c-.83 0-1.67.12-1.67.69 0 1.61 5.48.35 5.48 4.27 0 2.77-2.62 3.46-5 3.46a12.54 12.54 0 01-3.93-.46zM107 6.5l3.45-.92v2.3a4 4 0 013.93-2.07c3 0 4.53 2.77 4.53 5.3 0 3.11-1.67 5.65-4.88 5.65a3.52 3.52 0 01-3.38-1.76v5.65H107zm6 2.07c-1.31 0-2.26 1.15-2.26 2.77a2.5 2.5 0 002.17 2.66c1.43 0 2.26-1.15 2.26-2.76s-.83-2.65-2.26-2.65zm14.65 7.84c0-.57-.12-1.15-.12-1.61a3.77 3.77 0 01-3.53 1.85c-2.14 0-4-1-4-3.23 0-3.23 3.58-3.58 5.6-3.58.6 0 1.31.12 1.79.12 0-1.38-1.07-1.85-2.5-1.85a7.24 7.24 0 00-3.45.81l.36-2.43a8.34 8.34 0 013.81-.69c2.74 0 5.12 1.15 5.12 4.27V14a8.33 8.33 0 00.24 2.42zm-2.62-2.19a2.34 2.34 0 002.26-2.42c-.48 0-1-.12-1.55-.12-1.31 0-2.26.35-2.26 1.38-.09.82.63 1.17 1.46 1.17zm15.37-5.3a1.81 1.81 0 00-.83-.12c-1.79 0-2.74 1.27-2.74 3.23v4.38H133V6.5l3.34-.92v2.3a3.36 3.36 0 013.21-2.19c.48 0 .83.12 1.31.12zm5.12 3.34c.23 1.39 1.31 2 3.21 2a6 6 0 002.86-.81L152 16a10.8 10.8 0 01-3.93.69c-3.58 0-6.2-2.07-6.2-5.42s2.38-5.42 5.72-5.42c3.93 0 5.48 2.77 5.48 5.88v.69h-7.62zm4-2.07a2 2 0 10-4 0zm5.24-3.69l3.34-.92v2.3a4.14 4.14 0 013.9-2.19c3 0 4 2 4 4.15v6.46h-3.69v-5.08c0-2-.71-2.65-1.67-2.65-1.55 0-2.26 1-2.26 3.23v4.38h-3.69zm12.71-.5h2.15V3.74l3.69-1.15V6h2.62v2.58h-2.62v3.8c0 1.27.36 1.85 1.43 1.85.36 0 1.19-.12 1.55-.12l-.36 2.3a13.53 13.53 0 01-2.38.23c-3.34 0-4.17-1.38-4.17-3.92V8.46h-2.15V6zm102.68-2.5a2 2 0 11-2 2 1.85 1.85 0 012-2zm0 3.69a1.64 1.64 0 001.67-1.73 1.7 1.7 0 00-1.67-1.73 1.63 1.63 0 00-1.67 1.73 1.57 1.57 0 001.67 1.73zm-.83-2.89h1c.6 0 .83.23.83.69s-.24.58-.6.69l.71 1h-.36l-.6-1h-.36v1h-.35V4.32zm.36 1h.32c.35 0 .59 0 .59-.34s-.24-.35-.47-.35h-.48zm-87.56 11.11l.12-.34c1.79-.23 2-.35 2.5-2.77l1.55-7.72c.36-1.85.48-2.54-.83-2.77l-.6-.11.12-.35h5.83l-.12.35c-1.91.23-2.15.34-2.62 2.76l-1.55 8.19c-.48 2.19.24 2.19 2 2.19a4.15 4.15 0 003-.81 10.19 10.19 0 001.55-2.19l.36.11c-.24.69-1.08 2.65-1.31 3.35h-10zm22-1.84a8.9 8.9 0 01-3.21 2.07c-.24 0-.72-.23-.48-1.26l.6-2.89a19.45 19.45 0 01-3.1 3.11 4.81 4.81 0 01-1.79 1c-.48 0-1.31-.46-1.31-2.3a7.76 7.76 0 012.5-5.77 7.42 7.42 0 014.29-1.84c.36 0 .72.11 1.19.11a2.09 2.09 0 00.83.12l.12.11c-.48 2.19-1.07 4.61-1.43 7-.12.81-.12 1 0 1a4.15 4.15 0 001.67-1zm-4.88-6.68a5.14 5.14 0 00-1.91 2.31 9.3 9.3 0 00-.72 3.57c0 .81.12 1.5.6 1.5a5.63 5.63 0 002.14-1.5 11 11 0 001.67-2.19 15.8 15.8 0 00.87-3.58 4.25 4.25 0 00-1.43-.35 3.08 3.08 0 00-1.19.23zm7 8.76c.36-1.15.48-2.07.83-3.58L208 9.5c.24-.92.24-1.27.12-1.27a6.12 6.12 0 00-1.67 1l-.24-.35a7.5 7.5 0 013.21-2.19c.6 0 .6.81.24 2l-.48 2.07h.12a13.13 13.13 0 014.53-3.69 2.27 2.27 0 011.07-.23c.36 0 1.07.23.6 2.42-.48 1.61-.83 3.35-1.31 5.07-.12.81-.24 1 0 1a4.09 4.09 0 001.67-1l.12.23a8 8 0 01-3.21 2.07c-.48 0-.6-.46-.36-1.61l1.31-5.19c.24-1.15.36-1.73-.24-1.73-1.07 0-3.81 2.77-4.41 3.92a39.68 39.68 0 00-.83 4zm21.08-9.46a4.51 4.51 0 01-1.9 1h-.36a2 2 0 01.24 1.15 4.19 4.19 0 01-1.55 3.11 12.72 12.72 0 01-2.75 1.43c-.24.11-.48.23-.48.46 0 .46 1.31 1.15 2.26 1.73 1.51.93 2.22 1.73 2.22 2.53 0 2.19-3.57 3-5 3-1.67 0-3.69-.69-3.69-2.19 0-1 1.19-2 3.69-3.23-.71-.46-1.07-.92-1.07-1.15s.36-.58 1.43-1.15a2.44 2.44 0 01-2.15-2.54A4.56 4.56 0 01219.88 8a4.83 4.83 0 012.86-1.15 2.31 2.31 0 011.55.58 8.53 8.53 0 002.86-.43zm-5.24.35a1.83 1.83 0 00-1.67 1 4.54 4.54 0 00-.6 2.42c0 1.5.6 2.3 1.43 2.3 1.07 0 2.38-1.38 2.38-3.46.12-1.38-.36-2.3-1.55-2.3zm-4 11.52c0 1.38 1.43 2 2.86 2 1.19 0 2.74-.58 2.74-1.73 0-.69-.71-1.27-1.67-1.85a5 5 0 00-1.55-.8c-1.65.54-2.37 1.32-2.37 2.38zm19.19-12.21h.24l-1.67 7.49c-.12.81-.12 1 0 1a5.06 5.06 0 001.67-.92l.24.23a8.76 8.76 0 01-3.1 2.08c-.48 0-.6-.58-.36-1.73l.6-2.89h-.12A13.75 13.75 0 01231.2 16a3.41 3.41 0 01-1.79.69c-.36 0-1.19-.35-.6-2.66l1.07-4.38c.24-.92.24-1.27.12-1.27a6 6 0 00-1.67 1l-.24-.23C229.29 8 230.84 7 231.44 7s.6.58.36 1.38l-1.19 5.19c-.36 1.38-.36 2.07.12 2.07s1.67-.92 2.5-2a12.68 12.68 0 002-2.89c.12-.46.6-2 .83-3.22zm11.56 7.72a8.87 8.87 0 01-3.22 2.07c-.24 0-.71-.23-.47-1.26l.6-2.89a19.45 19.45 0 01-3.1 3.11 4.81 4.81 0 01-1.79 1c-.48 0-1.31-.46-1.31-2.3A7.76 7.76 0 01242 8.57a7.42 7.42 0 014.28-1.84c.36 0 .72.11 1.19.11a2.09 2.09 0 00.83.12l.12.11c-.47 2.19-1.07 4.61-1.43 7-.12.81-.12 1 0 1a4.09 4.09 0 001.67-1zm-4.88-6.68A5.08 5.08 0 00242 10.2a9.3 9.3 0 00-.72 3.57c0 .81.12 1.5.6 1.5a5.6 5.6 0 002.15-1.5 18.62 18.62 0 001.79-2.19 15.8 15.8 0 00.86-3.58 4.25 4.25 0 00-1.43-.35 3.3 3.3 0 00-1.31.24zm16.05-.7a4.5 4.5 0 01-1.91 1h-.36a2 2 0 01.27 1.19 4.18 4.18 0 01-1.55 3.11 12.52 12.52 0 01-2.86 1.38c-.23.11-.47.23-.47.46 0 .46 1.31 1.15 2.26 1.73 1.55.92 2.26 1.73 2.26 2.53 0 2.19-3.58 3-5 3-1.67 0-3.69-.69-3.69-2.19 0-1 1.19-2 3.7-3.23-.72-.46-1.08-.92-1.08-1.15s.36-.58 1.43-1.15a2.44 2.44 0 01-2.14-2.54A4.56 4.56 0 01252.52 8a4.82 4.82 0 012.86-1.15 2.29 2.29 0 011.55.58 8.51 8.51 0 002.85-.43zm-5.24.35a1.83 1.83 0 00-1.67 1 4.54 4.54 0 00-.6 2.42c0 1.5.6 2.3 1.43 2.3 1.07 0 2.38-1.38 2.38-3.46.12-1.38-.36-2.3-1.55-2.3zm-4.05 11.52c0 1.38 1.43 2 2.86 2 1.19 0 2.74-.58 2.74-1.73 0-.69-.71-1.27-1.67-1.85a5 5 0 00-1.55-.8c-1.67.57-2.39 1.38-2.39 2.42zm16.44-5c-2.26 2.3-3.93 2.54-4.77 2.54s-2.26-.58-2.26-3.11a7.05 7.05 0 012.62-5.42A6.71 6.71 0 01266 6.85a1.63 1.63 0 011.79 1.61c0 2-3.57 3.23-5.83 3.81v.58c0 1.15.24 2.65 1.67 2.65a5.74 5.74 0 003.45-1.61zm-1-5.3a1 1 0 00-1.07-1.15 2 2 0 00-1.07.35c-.47.23-1.55 1.27-2 3.92 3.13-1 4.21-1.88 4.21-3.07z" class="cls-1"/></svg>